PathFileType	4	(X/Y/Z)	C:/Users/opensim2020/Desktop/walking_exp_matlab/subject03_walking10_straight_01.trc																																																																																																																																					
DataRate	CameraRate	NumFrames	NumMarkers	Units	OrigDataRate	OrigDataStartFrame	OrigNumFrames																																																																																																																																	
100	100	6	45	mm	100	1016	477																																																																																																																																	
Frame#	Time	LFHD			RFHD			LBHD			RBHD			C7			T10			CLAV			STRN			RBAK			LSHO			LUPA			LELB			LFRM			LWRA			LWRB			LFIN			RSHO			RUPA			RELB			RFRM			RWRA			RWRB			RFIN			LASI			RASI			LPSI			RPSI			LTHI			LKNE			LTIB			LANK			LHEE			LTOE			RTHI			RKNE			RTIB			RANK			RHEE			RTOE			*39			*40			*41			*42			*43			*44		
		X1	Y1	Z1	X2	Y2	Z2	X3	Y3	Z3	X4	Y4	Z4	X5	Y5	Z5	X6	Y6	Z6	X7	Y7	Z7	X8	Y8	Z8	X9	Y9	Z9	X10	Y10	Z10	X11	Y11	Z11	X12	Y12	Z12	X13	Y13	Z13	X14	Y14	Z14	X15	Y15	Z15	X16	Y16	Z16	X17	Y17	Z17	X18	Y18	Z18	X19	Y19	Z19	X20	Y20	Z20	X21	Y21	Z21	X22	Y22	Z22	X23	Y23	Z23	X24	Y24	Z24	X25	Y25	Z25	X26	Y26	Z26	X27	Y27	Z27	X28	Y28	Z28	X29	Y29	Z29	X30	Y30	Z30	X31	Y31	Z31	X32	Y32	Z32	X33	Y33	Z33	X34	Y34	Z34	X35	Y35	Z35	X36	Y36	Z36	X37	Y37	Z37	X38	Y38	Z38	X39	Y39	Z39	X40	Y40	Z40	X41	Y41	Z41	X42	Y42	Z42	X43	Y43	Z43	X44	Y44	Z44	X45	Y45	Z45
																																																																																																																																								
358	3.57	719.13483	1607.48083	1415.58154	719.17987	1612.3446	1548.13306	583.95093	1595.32715	1419.65833	588.95728	1598.94141	1550.39148	525.41711	1429.95459	1485.18372	485.46445	1113.19861	1483.86792	640.93304	1346.93604	1473.3208	681.84479	1182.62952	1463.89075	474.30298	1251.67346	1585.98181	581.62146	1387.19019	1323.4967	564.71625	1192.69836	1247.28979	575.56854	1071.099	1228.86047	623.75018	951.11957	1222.01514	672.01202	841.55359	1246.83752	639.49896	839.69855	1201.40369	675.68604	763.61029	1205.98938	611.07178	1370.60107	1636.08789	649.63794	1153.40601	1710.43738	687.91882	1047.5282	1721.06921	734.23407	918.56958	1719.88391	779.01776	831.72998	1678.95544	756.12372	821.1748	1726.9762	792.87549	757.0838	1714.60144	642.98389	948.94531	1355.25806	656.42542	948.19403	1592.51001	483.08081	967.88495	1412.07922	493.14713	982.05231	1560.96106	646.47308	651.63721	1296.98169	699.20874	480.27484	1319.98865	613.12805	301.12949	1327.30566	554.33563	100.37904	1369.70618	512.76117	70.08986	1414.62573	690.98212	45.64328	1366.15369	582.49872	655.89636	1627.82983	579.5611	476.43448	1590.25476	517.91852	294.6868	1585.25818	484.78275	81.00736	1528.91589	443.56583	53.54926	1474.96863	627.46417	35.82471	1513.74585	653.0556	1685.66589	1468.45068	NaN	NaN	NaN	NaN	NaN	NaN	NaN	NaN	NaN	NaN	NaN	NaN	NaN	NaN	NaN
359	3.58	725.42987	1606.97119	1414.97888	725.8786	1612.10083	1547.48193	590.15674	1595.05615	1419.40723	595.67047	1598.9834	1550.10156	531.53607	1429.91968	1485.33875	491.19211	1113.17896	1483.81604	646.93213	1346.73535	1473.24597	687.73102	1182.41797	1463.96497	480.45041	1251.74573	1586.16907	587.3183	1387.07654	1323.47229	568.60406	1192.42688	1247.26501	578.98608	1070.93518	1228.92542	627.47327	951.09302	1222.14124	676.51477	841.89294	1247.00879	643.59192	839.72656	1201.82153	680.1521	763.87781	1206.29333	617.43359	1370.53333	1636.03271	656.82227	1153.62842	1710.46289	695.83624	1048.05554	1721.19104	743.42407	919.62305	1719.69824	788.86554	833.33344	1678.31763	766.05878	822.2384	1726.21777	803.85889	759.03986	1713.87988	649.08154	948.75952	1355.48254	661.87769	947.98444	1592.85364	489.6221	967.5481	1412.02722	498.77753	981.98102	1560.80737	653.61218	651.63007	1297.58325	708.0354	480.87103	1321.55359	627.90625	298.8584	1328.15662	577.10223	95.86902	1370.177	536.67267	64.24545	1415.00891	715.64868	45.67801	1367.57117	586.66937	655.94098	1627.89722	582.38324	476.5849	1590.45435	519.47137	295.17017	1585.16431	485.05768	81.53957	1528.84839	443.85541	54.4089	1474.79199	627.6333	35.78666	1513.88	659.65424	1685.28613	1467.68347	NaN	NaN	NaN	NaN	NaN	NaN	NaN	NaN	NaN	NaN	NaN	NaN	NaN	NaN	NaN
360	3.59	731.76587	1606.44128	1414.328	732.4986	1611.86804	1546.82764	596.43787	1594.77991	1419.08301	602.24622	1598.94287	1549.77405	537.71368	1429.80554	1485.38879	497.0368	1113.10095	1483.62939	653.01288	1346.45825	1473.10632	693.62134	1182.13782	1463.9425	486.3096	1251.7738	1586.36487	593.13684	1386.93921	1323.40869	572.83337	1192.22974	1247.38208	582.68207	1070.80774	1229.11072	631.16962	950.9718	1222.3429	680.85815	842.08667	1247.27014	647.52289	839.60162	1202.31055	684.49829	763.97327	1206.66724	623.77692	1370.38708	1635.92432	664.00983	1153.81128	1710.57458	703.53937	1048.48694	1721.33936	752.32391	920.49847	1719.32166	798.58685	834.83868	1677.62512	775.97357	823.35864	1725.52112	814.38586	760.51025	1712.80591	655.20972	948.46265	1355.71387	667.36261	947.72839	1593.13599	495.64401	967.55035	1411.81116	504.42044	981.87805	1560.646	660.30951	651.45294	1298.17871	716.16443	481.08487	1323.27991	642.8222	296.72144	1329.05798	599.97192	91.79341	1370.49854	560.09705	58.98948	1415	740.36908	45.75981	1369.28394	590.81714	655.98438	1627.91016	585.24249	476.7468	1590.6145	520.96893	295.66055	1585.22168	485.39468	82.14689	1528.9325	444.15353	55.30481	1474.67505	627.82538	35.8084	1514.02649	666.20483	1685.05603	1467.15588	NaN	NaN	NaN	NaN	NaN	NaN	NaN	NaN	NaN	NaN	NaN	NaN	NaN	NaN	NaN
361	3.6	738.04993	1605.9906	1413.71057	739.08386	1611.57544	1546.15527	602.67548	1594.34509	1418.74866	608.83911	1598.83911	1549.42188	543.95917	1429.63062	1485.23254	503.07007	1112.94775	1483.33142	659.16949	1346.18384	1472.99622	699.64355	1181.80273	1463.89795	492.43668	1251.68054	1586.31287	599.04156	1386.69531	1323.23132	577.3573	1192.00427	1247.39954	586.36902	1070.42993	1229.18677	634.93549	950.72583	1222.65515	685.0838	842.02441	1247.6709	651.34741	839.31738	1202.93652	688.67139	763.94025	1207.06677	630.07532	1370.17236	1635.78674	671.02112	1153.86157	1710.55359	711.099	1048.7887	1721.20166	761.01886	921.29218	1718.92688	808.04645	836.27319	1676.83105	785.67133	824.3595	1724.74097	824.80304	762.03137	1711.71973	661.33038	948.04413	1355.85669	672.9444	947.46283	1593.35132	501.44849	967.79596	1411.69202	510.15002	981.8573	1560.34827	666.68488	651.05164	1298.81763	724.16046	481.21909	1324.95056	657.83167	294.69327	1329.92859	622.95099	88.05347	1370.6908	583.5896	54.13034	1414.72119	764.79224	45.833	1371.25854	594.96155	655.94849	1627.9563	588.10931	476.81134	1590.79333	522.43976	296.18594	1585.4314	485.63745	82.7747	1528.95154	444.35617	56.12168	1474.68982	627.95721	35.87547	1514.29309	672.65326	1684.60376	1466.33582	NaN	NaN	NaN	NaN	NaN	NaN	NaN	NaN	NaN	NaN	NaN	NaN	NaN	NaN	NaN
362	3.61	744.26874	1605.41443	1413.00977	745.62354	1611.29443	1545.4646	608.92346	1593.91675	1418.38428	615.34753	1598.5885	1549.03174	550.20044	1429.37061	1485.1272	508.90552	1112.75403	1483.02698	665.34564	1345.82605	1472.76038	705.71582	1181.42041	1463.76318	498.67673	1251.48328	1586.14233	605.09973	1386.43994	1323.00916	582.06946	1191.56384	1247.62317	590.27185	1070.03711	1229.4801	638.77069	950.27856	1222.97852	688.47247	841.57727	1248.00244	655.0553	838.85114	1203.52783	692.67438	763.67072	1207.58398	636.4209	1369.84631	1635.5791	677.78497	1153.74744	1710.38879	718.46985	1048.99207	1721.2373	769.53094	921.96472	1718.4386	817.20276	837.479	1675.94958	795.13391	825.26831	1723.89014	835.0871	763.67566	1710.68567	667.56555	947.55804	1355.9469	678.55109	947.13525	1593.48706	507.58408	967.36652	1411.24255	515.91455	981.77435	1559.97827	672.75385	650.52197	1299.46228	731.85327	481.22638	1326.48804	672.56885	292.82135	1330.8125	645.57764	84.51009	1370.54285	607.79974	49.84859	1414.16602	789.20074	45.9809	1373.41138	599.13019	655.86993	1628.03711	591.08466	476.87433	1590.99011	524.03119	296.60513	1585.62903	485.95972	83.32568	1529.20569	444.41498	56.95269	1474.66663	627.81769	35.62152	1514.23694	679.0899	1684.10962	1465.57703	NaN	NaN	NaN	NaN	NaN	NaN	NaN	NaN	NaN	NaN	NaN	NaN	NaN	NaN	NaN
363	3.62	750.58075	1604.91467	1412.38379	752.16956	1610.92944	1544.80505	615.2038	1593.45459	1417.94641	621.91119	1598.33215	1548.60974	556.54242	1429.03625	1484.93896	515.02753	1112.50452	1482.61938	671.60602	1345.39771	1472.52588	711.84088	1180.96802	1463.57727	504.83521	1251.21399	1585.93823	611.32123	1386.0874	1322.81555	587.02527	1191.2843	1247.54248	594.28583	1069.56323	1229.76929	642.66687	949.69714	1223.37073	692.36407	841.06604	1248.43726	658.74109	838.18945	1204.25476	696.45428	763.1745	1208.12537	642.73212	1369.47742	1635.33093	684.65808	1153.61609	1710.32617	725.86877	1049.16199	1721.06799	777.7417	922.46515	1717.84131	826.44702	838.97205	1675.14807	804.27948	825.94226	1722.66895	844.78705	764.71149	1709.29211	673.80005	946.94666	1355.94312	684.20801	946.76392	1593.48901	513.77667	967.03082	1410.89673	521.7265	981.60815	1559.60852	678.67169	649.79443	1300.07397	739.1145	481.10876	1328.33496	687.01093	291.18564	1331.76636	668.47369	81.7952	1370.67615	630.77905	46.45814	1414.13452	813.26068	45.88486	1375.47571	603.38013	655.80402	1628.14063	594.23108	476.79822	1591.28149	525.79376	297.01068	1585.8772	486.28729	83.82536	1529.46411	444.59235	57.81614	1474.92505	627.91412	35.6104	1514.37488	685.5238	1683.85559	1465.20862	NaN	NaN	NaN	NaN	NaN	NaN	NaN	NaN	NaN	NaN	NaN	NaN	NaN	NaN	NaN
